solid OpenSCAD_Model
  facet normal 0 0.881912 -0.471413
    outer loop
      vertex 3.5 15.5675 22.7777
      vertex -3.5 16.353 24.2472
      vertex 3.5 16.353 24.2472
    endloop
  endfacet
  facet normal 0 0.881912 -0.471413
    outer loop
      vertex -3.5 16.353 24.2472
      vertex 3.5 15.5675 22.7777
      vertex -3.5 15.5675 22.7777
    endloop
  endfacet
  facet normal 0 -0.0980021 0.995186
    outer loop
      vertex -3.5 8.5 36
      vertex 3.5 6.84173 35.8367
      vertex 3.5 8.5 36
    endloop
  endfacet
  facet normal 0 -0.0980021 0.995186
    outer loop
      vertex 3.5 6.84173 35.8367
      vertex -3.5 8.5 36
      vertex -3.5 6.84173 35.8367
    endloop
  endfacet
  facet normal 0 -0.290286 0.95694
    outer loop
      vertex -3.5 6.84173 35.8367
      vertex 3.5 5.24719 35.353
      vertex 3.5 6.84173 35.8367
    endloop
  endfacet
  facet normal 0 -0.290286 0.95694
    outer loop
      vertex 3.5 5.24719 35.353
      vertex -3.5 6.84173 35.8367
      vertex -3.5 5.24719 35.353
    endloop
  endfacet
  facet normal 0 0.956938 0.290292
    outer loop
      vertex 3.5 16.8367 29.1583
      vertex -3.5 16.353 30.7528
      vertex 3.5 16.353 30.7528
    endloop
  endfacet
  facet normal 0 0.956938 0.290292
    outer loop
      vertex -3.5 16.353 30.7528
      vertex 3.5 16.8367 29.1583
      vertex -3.5 16.8367 29.1583
    endloop
  endfacet
  facet normal 0 -0.773021 0.63438
    outer loop
      vertex -3.5 1.43251 32.2223
      vertex 3.5 2.48959 33.5104
      vertex -3.5 2.48959 33.5104
    endloop
  endfacet
  facet normal 0 -0.773021 0.63438
    outer loop
      vertex 3.5 2.48959 33.5104
      vertex -3.5 1.43251 32.2223
      vertex 3.5 1.43251 32.2223
    endloop
  endfacet
  facet normal 0 0.881912 0.471413
    outer loop
      vertex 3.5 16.353 30.7528
      vertex -3.5 15.5675 32.2223
      vertex 3.5 15.5675 32.2223
    endloop
  endfacet
  facet normal 0 0.881912 0.471413
    outer loop
      vertex -3.5 15.5675 32.2223
      vertex 3.5 16.353 30.7528
      vertex -3.5 16.353 30.7528
    endloop
  endfacet
  facet normal 1 0 0
    outer loop
      vertex 3.5 12.7426 23.2574
      vertex 3.5 12.6264 23.162
      vertex 3.5 12.6353 23.1527
    endloop
  endfacet
  facet normal 1 0 0
    outer loop
      vertex 3.5 14.5 27.5
      vertex 3.5 17 27.5
      vertex 3.5 16.8367 29.1583
    endloop
  endfacet
  facet normal 1 0 0
    outer loop
      vertex 3.5 14.3847 28.6705
      vertex 3.5 16.8367 29.1583
      vertex 3.5 16.353 30.7528
    endloop
  endfacet
  facet normal 1 0 0
    outer loop
      vertex 3.5 17 27.5
      vertex 3.5 14.5 27.5
      vertex 3.5 16.8367 25.8417
    endloop
  endfacet
  facet normal 1 0 0
    outer loop
      vertex 3.5 14.0433 29.7961
      vertex 3.5 16.353 30.7528
      vertex 3.5 15.5675 32.2223
    endloop
  endfacet
  facet normal 1 -0 0
    outer loop
      vertex 3.5 14.3847 26.3295
      vertex 3.5 16.8367 25.8417
      vertex 3.5 14.5 27.5
    endloop
  endfacet
  facet normal 1 0 0
    outer loop
      vertex 3.5 13.4888 30.8334
      vertex 3.5 15.5675 32.2223
      vertex 3.5 14.5104 33.5104
    endloop
  endfacet
  facet normal 1 0 0
    outer loop
      vertex 3.5 16.8367 25.8417
      vertex 3.5 14.3847 26.3295
      vertex 3.5 16.353 24.2472
    endloop
  endfacet
  facet normal 1 -0 0
    outer loop
      vertex 3.5 14.0433 25.2039
      vertex 3.5 16.353 24.2472
      vertex 3.5 14.3847 26.3295
    endloop
  endfacet
  facet normal 1 0 0
    outer loop
      vertex 3.5 16.8367 29.1583
      vertex 3.5 14.3847 28.6705
      vertex 3.5 14.5 27.5
    endloop
  endfacet
  facet normal 1 0 0
    outer loop
      vertex 3.5 16.353 30.7528
      vertex 3.5 14.0433 29.7961
      vertex 3.5 14.3847 28.6705
    endloop
  endfacet
  facet normal 1 0 0
    outer loop
      vertex 3.5 15.5675 32.2223
      vertex 3.5 13.4888 30.8334
      vertex 3.5 14.0433 29.7961
    endloop
  endfacet
  facet normal 1 0 0
    outer loop
      vertex 3.5 12.7426 31.7426
      vertex 3.5 14.5104 33.5104
      vertex 3.5 13.2223 34.5675
    endloop
  endfacet
  facet normal 1 0 0
    outer loop
      vertex 3.5 14.5104 33.5104
      vertex 3.5 12.7426 31.7426
      vertex 3.5 13.4888 30.8334
    endloop
  endfacet
  facet normal 1 0 0
    outer loop
      vertex 3.5 13.2223 34.5675
      vertex 3.5 11.8334 32.4888
      vertex 3.5 12.7426 31.7426
    endloop
  endfacet
  facet normal 1 0 0
    outer loop
      vertex 3.5 11.7528 35.353
      vertex 3.5 11.8334 32.4888
      vertex 3.5 13.2223 34.5675
    endloop
  endfacet
  facet normal 1 0 0
    outer loop
      vertex 3.5 11.7528 35.353
      vertex 3.5 10.7961 33.0433
      vertex 3.5 11.8334 32.4888
    endloop
  endfacet
  facet normal 1 0 0
    outer loop
      vertex 3.5 10.1583 35.8367
      vertex 3.5 10.7961 33.0433
      vertex 3.5 11.7528 35.353
    endloop
  endfacet
  facet normal 1 0 0
    outer loop
      vertex 3.5 10.1583 35.8367
      vertex 3.5 9.67054 33.3847
      vertex 3.5 10.7961 33.0433
    endloop
  endfacet
  facet normal 1 0 0
    outer loop
      vertex 3.5 8.5 36
      vertex 3.5 9.67054 33.3847
      vertex 3.5 10.1583 35.8367
    endloop
  endfacet
  facet normal 1 0 0
    outer loop
      vertex 3.5 8.5 36
      vertex 3.5 8.5 33.5
      vertex 3.5 9.67054 33.3847
    endloop
  endfacet
  facet normal 1 0 0
    outer loop
      vertex 3.5 8.5 36
      vertex 3.5 7.32946 33.3847
      vertex 3.5 8.5 33.5
    endloop
  endfacet
  facet normal 1 -0 0
    outer loop
      vertex 3.5 6.84173 35.8367
      vertex 3.5 7.32946 33.3847
      vertex 3.5 8.5 36
    endloop
  endfacet
  facet normal 1 0 0
    outer loop
      vertex 3.5 6.84173 35.8367
      vertex 3.5 6.2039 33.0433
      vertex 3.5 7.32946 33.3847
    endloop
  endfacet
  facet normal 1 -0 0
    outer loop
      vertex 3.5 5.24719 35.353
      vertex 3.5 6.2039 33.0433
      vertex 3.5 6.84173 35.8367
    endloop
  endfacet
  facet normal 1 0 0
    outer loop
      vertex 3.5 5.24719 35.353
      vertex 3.5 5.16658 32.4888
      vertex 3.5 6.2039 33.0433
    endloop
  endfacet
  facet normal 1 -0 0
    outer loop
      vertex 3.5 3.77765 34.5675
      vertex 3.5 5.16658 32.4888
      vertex 3.5 5.24719 35.353
    endloop
  endfacet
  facet normal 1 0 0
    outer loop
      vertex 3.5 5.16658 32.4888
      vertex 3.5 3.77765 34.5675
      vertex 3.5 4.25736 31.7426
    endloop
  endfacet
  facet normal 1 -0 0
    outer loop
      vertex 3.5 2.48959 33.5104
      vertex 3.5 4.25736 31.7426
      vertex 3.5 3.77765 34.5675
    endloop
  endfacet
  facet normal 1 0 0
    outer loop
      vertex 3.5 4.25736 31.7426
      vertex 3.5 2.48959 33.5104
      vertex 3.5 3.51118 30.8334
    endloop
  endfacet
  facet normal 1 -0 0
    outer loop
      vertex 3.5 1.43251 32.2223
      vertex 3.5 3.51118 30.8334
      vertex 3.5 2.48959 33.5104
    endloop
  endfacet
  facet normal 1 0 0
    outer loop
      vertex 3.5 3.51118 30.8334
      vertex 3.5 1.43251 32.2223
      vertex 3.5 2.95672 29.7961
    endloop
  endfacet
  facet normal 1 -0 0
    outer loop
      vertex 3.5 0.647024 30.7528
      vertex 3.5 2.95672 29.7961
      vertex 3.5 1.43251 32.2223
    endloop
  endfacet
  facet normal 1 0 0
    outer loop
      vertex 3.5 2.95672 29.7961
      vertex 3.5 0.647024 30.7528
      vertex 3.5 2.61529 28.6705
    endloop
  endfacet
  facet normal 1 0 0
    outer loop
      vertex 3.5 2.5 27.5
      vertex 3.5 0.0049245 27.55
      vertex 3.5 2.5 15.4696
    endloop
  endfacet
  facet normal 1 -0 0
    outer loop
      vertex 3.5 0 27.55
      vertex 3.5 2.5 15.4696
      vertex 3.5 0.0049245 27.55
    endloop
  endfacet
  facet normal 1 0 0
    outer loop
      vertex 3.5 2.5 15.4696
      vertex 3.5 0 27.55
      vertex 3.5 2.34265 15.2779
    endloop
  endfacet
  facet normal 1 0 0
    outer loop
      vertex 3.5 2.34265 15.2779
      vertex 3.5 0 27.55
      vertex 3.5 1.8806 14.4134
    endloop
  endfacet
  facet normal 1 -0 0
    outer loop
      vertex 3.5 0.163325 29.1583
      vertex 3.5 2.61529 28.6705
      vertex 3.5 0.647024 30.7528
    endloop
  endfacet
  facet normal 1 0 0
    outer loop
      vertex 3.5 16.353 24.2472
      vertex 3.5 14.0433 25.2039
      vertex 3.5 15.5675 22.7777
    endloop
  endfacet
  facet normal 1 -0 0
    outer loop
      vertex 3.5 13.4888 24.1666
      vertex 3.5 15.5675 22.7777
      vertex 3.5 14.0433 25.2039
    endloop
  endfacet
  facet normal 1 0 0
    outer loop
      vertex 3.5 15.5675 22.7777
      vertex 3.5 13.4888 24.1666
      vertex 3.5 14.5104 21.4896
    endloop
  endfacet
  facet normal 1 -0 0
    outer loop
      vertex 3.5 12.7426 23.2574
      vertex 3.5 14.5104 21.4896
      vertex 3.5 13.4888 24.1666
    endloop
  endfacet
  facet normal 1 0 0
    outer loop
      vertex 3.5 14.5104 21.4896
      vertex 3.5 12.7426 23.2574
      vertex 3.5 14.428 21.422
    endloop
  endfacet
  facet normal 1 -0 0
    outer loop
      vertex 3.5 12.6353 23.1527
      vertex 3.5 14.428 21.422
      vertex 3.5 12.7426 23.2574
    endloop
  endfacet
  facet normal 1 0 0
    outer loop
      vertex 3.5 14.428 21.422
      vertex 3.5 12.6353 23.1527
      vertex 3.5 14.3583 21.3413
    endloop
  endfacet
  facet normal 1 0 0
    outer loop
      vertex 3.5 12.6353 23.1527
      vertex 3.5 4.77911 12.2298
      vertex 3.5 14.3583 21.3413
    endloop
  endfacet
  facet normal 1 0 0
    outer loop
      vertex 3.5 5.65485 10.4784
      vertex 3.5 4.5 8.75
      vertex 3.5 4.74386 8.77402
    endloop
  endfacet
  facet normal 1 0 0
    outer loop
      vertex 3.5 5.65485 10.4784
      vertex 3.5 3.34515 9.52165
      vertex 3.5 4.5 8.75
    endloop
  endfacet
  facet normal 1 0 0
    outer loop
      vertex 3.5 4.5 8.75
      vertex 3.5 3.34515 9.52165
      vertex 3.5 4.25614 8.77402
    endloop
  endfacet
  facet normal 1 0 0
    outer loop
      vertex 3.5 4.25614 8.77402
      vertex 3.5 3.34515 9.52165
      vertex 3.5 4.02165 8.84515
    endloop
  endfacet
  facet normal 1 0 0
    outer loop
      vertex 3.5 4.02165 8.84515
      vertex 3.5 3.34515 9.52165
      vertex 3.5 3.80554 8.96066
    endloop
  endfacet
  facet normal 1 0 0
    outer loop
      vertex 3.5 3.80554 8.96066
      vertex 3.5 3.34515 9.52165
      vertex 3.5 3.61612 9.11612
    endloop
  endfacet
  facet normal 1 0 0
    outer loop
      vertex 3.5 3.61612 9.11612
      vertex 3.5 3.34515 9.52165
      vertex 3.5 3.46066 9.30554
    endloop
  endfacet
  facet normal 1 -0 0
    outer loop
      vertex 3.5 2.36612 13.3839
      vertex 3.5 4.77911 12.2298
      vertex 3.5 12.6353 23.1527
    endloop
  endfacet
  facet normal 1 0 0
    outer loop
      vertex 3.5 2.09515 12.0216
      vertex 3.5 4.77911 12.2298
      vertex 3.5 2.36612 13.3839
    endloop
  endfacet
  facet normal 1 0 0
    outer loop
      vertex 3.5 2.09515 12.0216
      vertex 3.5 2.36612 13.3839
      vertex 3.5 2.21066 13.1945
    endloop
  endfacet
  facet normal 1 0 0
    outer loop
      vertex 3.5 2.09515 12.0216
      vertex 3.5 2.21066 13.1945
      vertex 3.5 2.09515 12.9784
    endloop
  endfacet
  facet normal 1 0 0
    outer loop
      vertex 3.5 4.77911 12.2298
      vertex 3.5 2.09515 12.0216
      vertex 3.5 3.34515 9.52165
    endloop
  endfacet
  facet normal 1 -0 0
    outer loop
      vertex 3.5 2.02402 12.7439
      vertex 3.5 2.09515 12.0216
      vertex 3.5 2.09515 12.9784
    endloop
  endfacet
  facet normal 1 0 0
    outer loop
      vertex 3.5 2.02402 12.7439
      vertex 3.5 2.02402 12.2561
      vertex 3.5 2.09515 12.0216
    endloop
  endfacet
  facet normal 1 0 -0
    outer loop
      vertex 3.5 2.02402 12.2561
      vertex 3.5 2.02402 12.7439
      vertex 3.5 2 12.5
    endloop
  endfacet
  facet normal 1 0 0
    outer loop
      vertex 3.5 5.72598 10.2439
      vertex 3.5 5.72598 9.75614
      vertex 3.5 5.75 10
    endloop
  endfacet
  facet normal 1 0 0
    outer loop
      vertex 3.5 5.65485 10.4784
      vertex 3.5 5.72598 9.75614
      vertex 3.5 5.72598 10.2439
    endloop
  endfacet
  facet normal 1 0 0
    outer loop
      vertex 3.5 5.65485 10.4784
      vertex 3.5 5.65485 9.52165
      vertex 3.5 5.72598 9.75614
    endloop
  endfacet
  facet normal 1 0 0
    outer loop
      vertex 3.5 5.65485 10.4784
      vertex 3.5 5.53934 9.30554
      vertex 3.5 5.65485 9.52165
    endloop
  endfacet
  facet normal 1 0 0
    outer loop
      vertex 3.5 5.65485 10.4784
      vertex 3.5 5.38388 9.11612
      vertex 3.5 5.53934 9.30554
    endloop
  endfacet
  facet normal 1 0 0
    outer loop
      vertex 3.5 5.65485 10.4784
      vertex 3.5 5.19446 8.96066
      vertex 3.5 5.38388 9.11612
    endloop
  endfacet
  facet normal 1 0 0
    outer loop
      vertex 3.5 5.65485 10.4784
      vertex 3.5 4.97835 8.84515
      vertex 3.5 5.19446 8.96066
    endloop
  endfacet
  facet normal 1 0 0
    outer loop
      vertex 3.5 3.34515 9.52165
      vertex 3.5 5.65485 10.4784
      vertex 3.5 4.77911 12.2298
    endloop
  endfacet
  facet normal 1 0 0
    outer loop
      vertex 3.5 5.65485 10.4784
      vertex 3.5 4.74386 8.77402
      vertex 3.5 4.97835 8.84515
    endloop
  endfacet
  facet normal 1 0 0
    outer loop
      vertex 3.5 0 5
      vertex 3.5 2.5 9.53042
      vertex 3.5 2.34265 9.72215
    endloop
  endfacet
  facet normal 1 0 0
    outer loop
      vertex 3.5 0 5
      vertex 3.5 2.34265 9.72215
      vertex 3.5 1.8806 10.5866
    endloop
  endfacet
  facet normal 1 0 0
    outer loop
      vertex 3.5 0 5
      vertex 3.5 1.8806 10.5866
      vertex 3.5 1.59607 11.5245
    endloop
  endfacet
  facet normal 1 0 0
    outer loop
      vertex 3.5 0.0049245 27.55
      vertex 3.5 2.61529 28.6705
      vertex 3.5 0.163325 29.1583
    endloop
  endfacet
  facet normal 1 0 0
    outer loop
      vertex 3.5 2.61529 28.6705
      vertex 3.5 0.0049245 27.55
      vertex 3.5 2.5 27.5
    endloop
  endfacet
  facet normal 1 0 0
    outer loop
      vertex 3.5 1.8806 14.4134
      vertex 3.5 0 27.55
      vertex 3.5 1.59607 13.4755
    endloop
  endfacet
  facet normal 1 0 0
    outer loop
      vertex 3.5 1.59607 13.4755
      vertex 3.5 0 27.55
      vertex 3.5 1.5 12.5
    endloop
  endfacet
  facet normal 1 0 0
    outer loop
      vertex 3.5 0 5
      vertex 3.5 1.5 12.5
      vertex 3.5 0 27.55
    endloop
  endfacet
  facet normal 1 0 0
    outer loop
      vertex 3.5 1.5 12.5
      vertex 3.5 0 5
      vertex 3.5 1.59607 11.5245
    endloop
  endfacet
  facet normal 1 0 0
    outer loop
      vertex 3.5 2.5 9.53042
      vertex 3.5 0 5
      vertex 3.5 2.5 2.5
    endloop
  endfacet
  facet normal 1 0 0
    outer loop
      vertex 3.5 -7 2.5
      vertex 3.5 0 5
      vertex 3.5 -7 5
    endloop
  endfacet
  facet normal 1 0 0
    outer loop
      vertex 3.5 0 5
      vertex 3.5 -7 2.5
      vertex 3.5 2.5 2.5
    endloop
  endfacet
  facet normal -0 0.634387 0.773015
    outer loop
      vertex -3.5 14.5104 33.5104
      vertex 3.5 13.2223 34.5675
      vertex 3.5 14.5104 33.5104
    endloop
  endfacet
  facet normal 0 0.634387 0.773015
    outer loop
      vertex 3.5 13.2223 34.5675
      vertex -3.5 14.5104 33.5104
      vertex -3.5 13.2223 34.5675
    endloop
  endfacet
  facet normal 0 0.995186 -0.0980003
    outer loop
      vertex 3.5 16.8367 25.8417
      vertex -3.5 17 27.5
      vertex 3.5 17 27.5
    endloop
  endfacet
  facet normal 0 0.995186 -0.0980003
    outer loop
      vertex -3.5 17 27.5
      vertex 3.5 16.8367 25.8417
      vertex -3.5 16.8367 25.8417
    endloop
  endfacet
  facet normal 0 -0.881916 0.471407
    outer loop
      vertex -3.5 0.647024 30.7528
      vertex 3.5 1.43251 32.2223
      vertex -3.5 1.43251 32.2223
    endloop
  endfacet
  facet normal 0 -0.881916 0.471407
    outer loop
      vertex 3.5 1.43251 32.2223
      vertex -3.5 0.647024 30.7528
      vertex 3.5 0.647024 30.7528
    endloop
  endfacet
  facet normal 0 -0.471404 0.881918
    outer loop
      vertex -3.5 5.24719 35.353
      vertex 3.5 3.77765 34.5675
      vertex 3.5 5.24719 35.353
    endloop
  endfacet
  facet normal 0 -0.471404 0.881918
    outer loop
      vertex 3.5 3.77765 34.5675
      vertex -3.5 5.24719 35.353
      vertex -3.5 3.77765 34.5675
    endloop
  endfacet
  facet normal -1 0 0
    outer loop
      vertex -3.5 5.72598 9.75614
      vertex -3.5 5.72598 10.2439
      vertex -3.5 5.75 10
    endloop
  endfacet
  facet normal -1 0 0
    outer loop
      vertex -3.5 5.65485 9.52165
      vertex -3.5 5.72598 10.2439
      vertex -3.5 5.72598 9.75614
    endloop
  endfacet
  facet normal -1 0 0
    outer loop
      vertex -3.5 5.65485 9.52165
      vertex -3.5 5.65485 10.4784
      vertex -3.5 5.72598 10.2439
    endloop
  endfacet
  facet normal -1 0 0
    outer loop
      vertex -3.5 5.53934 9.30554
      vertex -3.5 5.65485 10.4784
      vertex -3.5 5.65485 9.52165
    endloop
  endfacet
  facet normal -1 0 0
    outer loop
      vertex -3.5 5.38388 9.11612
      vertex -3.5 5.65485 10.4784
      vertex -3.5 5.53934 9.30554
    endloop
  endfacet
  facet normal -1 0 0
    outer loop
      vertex -3.5 5.19446 8.96066
      vertex -3.5 5.65485 10.4784
      vertex -3.5 5.38388 9.11612
    endloop
  endfacet
  facet normal -1 0 0
    outer loop
      vertex -3.5 4.97835 8.84515
      vertex -3.5 5.65485 10.4784
      vertex -3.5 5.19446 8.96066
    endloop
  endfacet
  facet normal -1 0 0
    outer loop
      vertex -3.5 3.34515 9.52165
      vertex -3.5 5.65485 10.4784
      vertex -3.5 4.97835 8.84515
    endloop
  endfacet
  facet normal -1 0 0
    outer loop
      vertex -3.5 3.34515 9.52165
      vertex -3.5 4.97835 8.84515
      vertex -3.5 4.74386 8.77402
    endloop
  endfacet
  facet normal -1 0 0
    outer loop
      vertex -3.5 14.5 27.5
      vertex -3.5 17 27.5
      vertex -3.5 16.8367 25.8417
    endloop
  endfacet
  facet normal -1 0 0
    outer loop
      vertex -3.5 14.3847 26.3295
      vertex -3.5 16.8367 25.8417
      vertex -3.5 16.353 24.2472
    endloop
  endfacet
  facet normal -1 0 0
    outer loop
      vertex -3.5 17 27.5
      vertex -3.5 14.5 27.5
      vertex -3.5 16.8367 29.1583
    endloop
  endfacet
  facet normal -1 0 0
    outer loop
      vertex -3.5 14.0433 25.2039
      vertex -3.5 16.353 24.2472
      vertex -3.5 15.5675 22.7777
    endloop
  endfacet
  facet normal -1 0 0
    outer loop
      vertex -3.5 14.3847 28.6705
      vertex -3.5 16.8367 29.1583
      vertex -3.5 14.5 27.5
    endloop
  endfacet
  facet normal -1 0 0
    outer loop
      vertex -3.5 13.4888 24.1666
      vertex -3.5 15.5675 22.7777
      vertex -3.5 14.5104 21.4896
    endloop
  endfacet
  facet normal -1 -0 0
    outer loop
      vertex -3.5 16.8367 29.1583
      vertex -3.5 14.3847 28.6705
      vertex -3.5 16.353 30.7528
    endloop
  endfacet
  facet normal -1 0 0
    outer loop
      vertex -3.5 14.0433 29.7961
      vertex -3.5 16.353 30.7528
      vertex -3.5 14.3847 28.6705
    endloop
  endfacet
  facet normal -1 0 0
    outer loop
      vertex -3.5 12.7426 23.2574
      vertex -3.5 14.5104 21.4896
      vertex -3.5 14.428 21.422
    endloop
  endfacet
  facet normal -1 0 0
    outer loop
      vertex -3.5 16.8367 25.8417
      vertex -3.5 14.3847 26.3295
      vertex -3.5 14.5 27.5
    endloop
  endfacet
  facet normal -1 0 0
    outer loop
      vertex -3.5 12.6353 23.1527
      vertex -3.5 14.428 21.422
      vertex -3.5 14.3583 21.3413
    endloop
  endfacet
  facet normal -1 0 0
    outer loop
      vertex -3.5 16.353 24.2472
      vertex -3.5 14.0433 25.2039
      vertex -3.5 14.3847 26.3295
    endloop
  endfacet
  facet normal -1 0 0
    outer loop
      vertex -3.5 15.5675 22.7777
      vertex -3.5 13.4888 24.1666
      vertex -3.5 14.0433 25.2039
    endloop
  endfacet
  facet normal -1 0 0
    outer loop
      vertex -3.5 14.5104 21.4896
      vertex -3.5 12.7426 23.2574
      vertex -3.5 13.4888 24.1666
    endloop
  endfacet
  facet normal -1 0 0
    outer loop
      vertex -3.5 14.428 21.422
      vertex -3.5 12.6353 23.1527
      vertex -3.5 12.7426 23.2574
    endloop
  endfacet
  facet normal -1 0 0
    outer loop
      vertex -3.5 4.77911 12.2298
      vertex -3.5 12.6353 23.1527
      vertex -3.5 14.3583 21.3413
    endloop
  endfacet
  facet normal -1 0 0
    outer loop
      vertex -3.5 3.34515 9.52165
      vertex -3.5 4.74386 8.77402
      vertex -3.5 4.5 8.75
    endloop
  endfacet
  facet normal -1 0 0
    outer loop
      vertex -3.5 3.34515 9.52165
      vertex -3.5 4.5 8.75
      vertex -3.5 4.25614 8.77402
    endloop
  endfacet
  facet normal -1 0 0
    outer loop
      vertex -3.5 3.34515 9.52165
      vertex -3.5 4.25614 8.77402
      vertex -3.5 4.02165 8.84515
    endloop
  endfacet
  facet normal -1 0 0
    outer loop
      vertex -3.5 3.34515 9.52165
      vertex -3.5 4.02165 8.84515
      vertex -3.5 3.80554 8.96066
    endloop
  endfacet
  facet normal -1 0 0
    outer loop
      vertex -3.5 3.34515 9.52165
      vertex -3.5 3.80554 8.96066
      vertex -3.5 3.61612 9.11612
    endloop
  endfacet
  facet normal -1 0 0
    outer loop
      vertex -3.5 3.34515 9.52165
      vertex -3.5 3.61612 9.11612
      vertex -3.5 3.46066 9.30554
    endloop
  endfacet
  facet normal -1 -0 0
    outer loop
      vertex -3.5 5.65485 10.4784
      vertex -3.5 3.34515 9.52165
      vertex -3.5 4.77911 12.2298
    endloop
  endfacet
  facet normal -1 0 0
    outer loop
      vertex -3.5 4.77911 12.2298
      vertex -3.5 2.36612 13.3839
      vertex -3.5 12.6353 23.1527
    endloop
  endfacet
  facet normal -1 0 0
    outer loop
      vertex -3.5 2.09515 12.0216
      vertex -3.5 4.77911 12.2298
      vertex -3.5 3.34515 9.52165
    endloop
  endfacet
  facet normal -1 -0 0
    outer loop
      vertex -3.5 4.77911 12.2298
      vertex -3.5 2.09515 12.0216
      vertex -3.5 2.36612 13.3839
    endloop
  endfacet
  facet normal -1 0 0
    outer loop
      vertex -3.5 2.36612 13.3839
      vertex -3.5 2.09515 12.0216
      vertex -3.5 2.21066 13.1945
    endloop
  endfacet
  facet normal -1 0 0
    outer loop
      vertex -3.5 2.09515 12.0216
      vertex -3.5 2.09515 12.9784
      vertex -3.5 2.21066 13.1945
    endloop
  endfacet
  facet normal -1 0 0
    outer loop
      vertex -3.5 2.02402 12.2561
      vertex -3.5 2.09515 12.9784
      vertex -3.5 2.09515 12.0216
    endloop
  endfacet
  facet normal -1 0 0
    outer loop
      vertex -3.5 2.02402 12.2561
      vertex -3.5 2.02402 12.7439
      vertex -3.5 2.09515 12.9784
    endloop
  endfacet
  facet normal -1 0 -0
    outer loop
      vertex -3.5 2.02402 12.7439
      vertex -3.5 2.02402 12.2561
      vertex -3.5 2 12.5
    endloop
  endfacet
  facet normal -1 -0 0
    outer loop
      vertex -3.5 16.353 30.7528
      vertex -3.5 14.0433 29.7961
      vertex -3.5 15.5675 32.2223
    endloop
  endfacet
  facet normal -1 0 0
    outer loop
      vertex -3.5 13.4888 30.8334
      vertex -3.5 15.5675 32.2223
      vertex -3.5 14.0433 29.7961
    endloop
  endfacet
  facet normal -1 -0 0
    outer loop
      vertex -3.5 15.5675 32.2223
      vertex -3.5 13.4888 30.8334
      vertex -3.5 14.5104 33.5104
    endloop
  endfacet
  facet normal -1 0 0
    outer loop
      vertex -3.5 12.7426 31.7426
      vertex -3.5 14.5104 33.5104
      vertex -3.5 13.4888 30.8334
    endloop
  endfacet
  facet normal -1 -0 0
    outer loop
      vertex -3.5 14.5104 33.5104
      vertex -3.5 12.7426 31.7426
      vertex -3.5 13.2223 34.5675
    endloop
  endfacet
  facet normal -1 0 0
    outer loop
      vertex -3.5 11.8334 32.4888
      vertex -3.5 13.2223 34.5675
      vertex -3.5 12.7426 31.7426
    endloop
  endfacet
  facet normal -1 0 0
    outer loop
      vertex -3.5 11.8334 32.4888
      vertex -3.5 11.7528 35.353
      vertex -3.5 13.2223 34.5675
    endloop
  endfacet
  facet normal -1 0 0
    outer loop
      vertex -3.5 10.7961 33.0433
      vertex -3.5 11.7528 35.353
      vertex -3.5 11.8334 32.4888
    endloop
  endfacet
  facet normal -1 0 0
    outer loop
      vertex -3.5 10.7961 33.0433
      vertex -3.5 10.1583 35.8367
      vertex -3.5 11.7528 35.353
    endloop
  endfacet
  facet normal -1 0 0
    outer loop
      vertex -3.5 9.67054 33.3847
      vertex -3.5 10.1583 35.8367
      vertex -3.5 10.7961 33.0433
    endloop
  endfacet
  facet normal -1 0 0
    outer loop
      vertex -3.5 8.5 33.5
      vertex -3.5 10.1583 35.8367
      vertex -3.5 9.67054 33.3847
    endloop
  endfacet
  facet normal -1 0 0
    outer loop
      vertex -3.5 8.5 33.5
      vertex -3.5 8.5 36
      vertex -3.5 10.1583 35.8367
    endloop
  endfacet
  facet normal -1 0 0
    outer loop
      vertex -3.5 7.32946 33.3847
      vertex -3.5 8.5 36
      vertex -3.5 8.5 33.5
    endloop
  endfacet
  facet normal -1 0 0
    outer loop
      vertex -3.5 7.32946 33.3847
      vertex -3.5 6.84173 35.8367
      vertex -3.5 8.5 36
    endloop
  endfacet
  facet normal -1 0 0
    outer loop
      vertex -3.5 6.2039 33.0433
      vertex -3.5 6.84173 35.8367
      vertex -3.5 7.32946 33.3847
    endloop
  endfacet
  facet normal -1 0 0
    outer loop
      vertex -3.5 6.2039 33.0433
      vertex -3.5 5.24719 35.353
      vertex -3.5 6.84173 35.8367
    endloop
  endfacet
  facet normal -1 0 0
    outer loop
      vertex -3.5 5.16658 32.4888
      vertex -3.5 5.24719 35.353
      vertex -3.5 6.2039 33.0433
    endloop
  endfacet
  facet normal -1 0 0
    outer loop
      vertex -3.5 3.77765 34.5675
      vertex -3.5 5.16658 32.4888
      vertex -3.5 4.25736 31.7426
    endloop
  endfacet
  facet normal -1 0 0
    outer loop
      vertex -3.5 5.16658 32.4888
      vertex -3.5 3.77765 34.5675
      vertex -3.5 5.24719 35.353
    endloop
  endfacet
  facet normal -1 0 0
    outer loop
      vertex -3.5 2.48959 33.5104
      vertex -3.5 4.25736 31.7426
      vertex -3.5 3.51118 30.8334
    endloop
  endfacet
  facet normal -1 0 0
    outer loop
      vertex -3.5 1.43251 32.2223
      vertex -3.5 3.51118 30.8334
      vertex -3.5 2.95672 29.7961
    endloop
  endfacet
  facet normal -1 0 0
    outer loop
      vertex -3.5 0.647024 30.7528
      vertex -3.5 2.95672 29.7961
      vertex -3.5 2.61529 28.6705
    endloop
  endfacet
  facet normal -1 0 0
    outer loop
      vertex -3.5 4.25736 31.7426
      vertex -3.5 2.48959 33.5104
      vertex -3.5 3.77765 34.5675
    endloop
  endfacet
  facet normal -1 0 0
    outer loop
      vertex -3.5 0.647024 30.7528
      vertex -3.5 2.61529 28.6705
      vertex -3.5 2.5 27.5
    endloop
  endfacet
  facet normal -1 0 0
    outer loop
      vertex -3.5 12.7426 23.2574
      vertex -3.5 12.6353 23.1527
      vertex -3.5 12.6264 23.162
    endloop
  endfacet
  facet normal -1 0 0
    outer loop
      vertex -3.5 0 5
      vertex -3.5 2.5 9.53042
      vertex -3.5 2.5 2.5
    endloop
  endfacet
  facet normal -1 -0 0
    outer loop
      vertex -3.5 2.5 9.53042
      vertex -3.5 0 5
      vertex -3.5 2.34265 9.72215
    endloop
  endfacet
  facet normal -1 -0 0
    outer loop
      vertex -3.5 2.34265 9.72215
      vertex -3.5 0 5
      vertex -3.5 1.8806 10.5866
    endloop
  endfacet
  facet normal -1 0 0
    outer loop
      vertex -3.5 2.95672 29.7961
      vertex -3.5 0.647024 30.7528
      vertex -3.5 1.43251 32.2223
    endloop
  endfacet
  facet normal -1 0 0
    outer loop
      vertex -3.5 1.59607 13.4755
      vertex -3.5 0.0049245 27.55
      vertex -3.5 0.647024 30.7528
    endloop
  endfacet
  facet normal -1 0 0
    outer loop
      vertex -3.5 0.647024 30.7528
      vertex -3.5 0.0049245 27.55
      vertex -3.5 0.163325 29.1583
    endloop
  endfacet
  facet normal -1 0 0
    outer loop
      vertex -3.5 0 5
      vertex -3.5 1.5 12.5
      vertex -3.5 1.59607 11.5245
    endloop
  endfacet
  facet normal -1 -0 0
    outer loop
      vertex -3.5 1.5 12.5
      vertex -3.5 0 5
      vertex -3.5 0 27.55
    endloop
  endfacet
  facet normal -1 -0 0
    outer loop
      vertex -3.5 1.8806 10.5866
      vertex -3.5 0 5
      vertex -3.5 1.59607 11.5245
    endloop
  endfacet
  facet normal -1 0 0
    outer loop
      vertex -3.5 -7 2.5
      vertex -3.5 0 5
      vertex -3.5 2.5 2.5
    endloop
  endfacet
  facet normal -1 -0 0
    outer loop
      vertex -3.5 0 5
      vertex -3.5 -7 2.5
      vertex -3.5 -7 5
    endloop
  endfacet
  facet normal -1 0 0
    outer loop
      vertex -3.5 2.34265 15.2779
      vertex -3.5 2.5 27.5
      vertex -3.5 2.5 15.4696
    endloop
  endfacet
  facet normal -1 0 0
    outer loop
      vertex -3.5 1.8806 14.4134
      vertex -3.5 2.5 27.5
      vertex -3.5 2.34265 15.2779
    endloop
  endfacet
  facet normal -1 0 0
    outer loop
      vertex -3.5 0.647024 30.7528
      vertex -3.5 1.8806 14.4134
      vertex -3.5 1.59607 13.4755
    endloop
  endfacet
  facet normal -1 0 0
    outer loop
      vertex -3.5 1.8806 14.4134
      vertex -3.5 0.647024 30.7528
      vertex -3.5 2.5 27.5
    endloop
  endfacet
  facet normal -1 0 0
    outer loop
      vertex -3.5 0 27.55
      vertex -3.5 1.59607 13.4755
      vertex -3.5 1.5 12.5
    endloop
  endfacet
  facet normal -1 0 0
    outer loop
      vertex -3.5 3.51118 30.8334
      vertex -3.5 1.43251 32.2223
      vertex -3.5 2.48959 33.5104
    endloop
  endfacet
  facet normal -1 0 0
    outer loop
      vertex -3.5 1.59607 13.4755
      vertex -3.5 0 27.55
      vertex -3.5 0.0049245 27.55
    endloop
  endfacet
  facet normal 0 0.634259 -0.773121
    outer loop
      vertex -3.5 14.428 21.422
      vertex 3.5 14.5104 21.4896
      vertex 3.5 14.428 21.422
    endloop
  endfacet
  facet normal 0 0.634259 -0.773121
    outer loop
      vertex 3.5 14.5104 21.4896
      vertex -3.5 14.428 21.422
      vertex -3.5 14.5104 21.4896
    endloop
  endfacet
  facet normal -0 0.471413 0.881912
    outer loop
      vertex -3.5 13.2223 34.5675
      vertex 3.5 11.7528 35.353
      vertex 3.5 13.2223 34.5675
    endloop
  endfacet
  facet normal 0 0.471413 0.881912
    outer loop
      vertex 3.5 11.7528 35.353
      vertex -3.5 13.2223 34.5675
      vertex -3.5 11.7528 35.353
    endloop
  endfacet
  facet normal 0 0.956938 -0.290292
    outer loop
      vertex 3.5 16.353 24.2472
      vertex -3.5 16.8367 25.8417
      vertex 3.5 16.8367 25.8417
    endloop
  endfacet
  facet normal 0 0.956938 -0.290292
    outer loop
      vertex -3.5 16.8367 25.8417
      vertex 3.5 16.353 24.2472
      vertex -3.5 16.353 24.2472
    endloop
  endfacet
  facet normal 0 -0.956938 0.290292
    outer loop
      vertex -3.5 0.163325 29.1583
      vertex 3.5 0.647024 30.7528
      vertex -3.5 0.647024 30.7528
    endloop
  endfacet
  facet normal 0 -0.956938 0.290292
    outer loop
      vertex 3.5 0.647024 30.7528
      vertex -3.5 0.163325 29.1583
      vertex 3.5 0.163325 29.1583
    endloop
  endfacet
  facet normal 0 0.773015 -0.634387
    outer loop
      vertex 3.5 14.5104 21.4896
      vertex -3.5 15.5675 22.7777
      vertex 3.5 15.5675 22.7777
    endloop
  endfacet
  facet normal 0 0.773015 -0.634387
    outer loop
      vertex -3.5 15.5675 22.7777
      vertex 3.5 14.5104 21.4896
      vertex -3.5 14.5104 21.4896
    endloop
  endfacet
  facet normal 0 -0.995185 0.0980152
    outer loop
      vertex -3.5 0.0049245 27.55
      vertex 3.5 0.163325 29.1583
      vertex -3.5 0.163325 29.1583
    endloop
  endfacet
  facet normal 0 -0.995185 0.0980152
    outer loop
      vertex 3.5 0.163325 29.1583
      vertex -3.5 0.0049245 27.55
      vertex 3.5 0.0049245 27.55
    endloop
  endfacet
  facet normal 0 0.773015 0.634387
    outer loop
      vertex 3.5 15.5675 32.2223
      vertex -3.5 14.5104 33.5104
      vertex 3.5 14.5104 33.5104
    endloop
  endfacet
  facet normal 0 0.773015 0.634387
    outer loop
      vertex -3.5 14.5104 33.5104
      vertex 3.5 15.5675 32.2223
      vertex -3.5 15.5675 32.2223
    endloop
  endfacet
  facet normal 0 -0.634399 0.773006
    outer loop
      vertex -3.5 3.77765 34.5675
      vertex 3.5 2.48959 33.5104
      vertex 3.5 3.77765 34.5675
    endloop
  endfacet
  facet normal 0 -0.634399 0.773006
    outer loop
      vertex 3.5 2.48959 33.5104
      vertex -3.5 3.77765 34.5675
      vertex -3.5 2.48959 33.5104
    endloop
  endfacet
  facet normal 0 0.995186 0.0980003
    outer loop
      vertex 3.5 17 27.5
      vertex -3.5 16.8367 29.1583
      vertex 3.5 16.8367 29.1583
    endloop
  endfacet
  facet normal 0 0.995186 0.0980003
    outer loop
      vertex -3.5 16.8367 29.1583
      vertex 3.5 17 27.5
      vertex -3.5 17 27.5
    endloop
  endfacet
  facet normal -0 0.0980003 0.995186
    outer loop
      vertex -3.5 10.1583 35.8367
      vertex 3.5 8.5 36
      vertex 3.5 10.1583 35.8367
    endloop
  endfacet
  facet normal 0 0.0980003 0.995186
    outer loop
      vertex 3.5 8.5 36
      vertex -3.5 10.1583 35.8367
      vertex -3.5 8.5 36
    endloop
  endfacet
  facet normal -0 0.290292 0.956938
    outer loop
      vertex -3.5 11.7528 35.353
      vertex 3.5 10.1583 35.8367
      vertex 3.5 11.7528 35.353
    endloop
  endfacet
  facet normal 0 0.290292 0.956938
    outer loop
      vertex 3.5 10.1583 35.8367
      vertex -3.5 11.7528 35.353
      vertex -3.5 10.1583 35.8367
    endloop
  endfacet
  facet normal 0 -0.634541 0.772889
    outer loop
      vertex -3.5 12.7426 23.2574
      vertex 3.5 12.6264 23.162
      vertex 3.5 12.7426 23.2574
    endloop
  endfacet
  facet normal 0 -0.634541 0.772889
    outer loop
      vertex 3.5 12.6264 23.162
      vertex -3.5 12.7426 23.2574
      vertex -3.5 12.6264 23.162
    endloop
  endfacet
  facet normal 0 -0.772994 0.634413
    outer loop
      vertex -3.5 12.7426 23.2574
      vertex 3.5 13.4888 24.1666
      vertex -3.5 13.4888 24.1666
    endloop
  endfacet
  facet normal 0 -0.772994 0.634413
    outer loop
      vertex 3.5 13.4888 24.1666
      vertex -3.5 12.7426 23.2574
      vertex 3.5 12.7426 23.2574
    endloop
  endfacet
  facet normal 0 -0.881903 -0.471431
    outer loop
      vertex -3.5 14.0433 29.7961
      vertex 3.5 13.4888 30.8334
      vertex -3.5 13.4888 30.8334
    endloop
  endfacet
  facet normal 0 -0.881903 -0.471431
    outer loop
      vertex 3.5 13.4888 30.8334
      vertex -3.5 14.0433 29.7961
      vertex 3.5 14.0433 29.7961
    endloop
  endfacet
  facet normal 0 0.881917 -0.471404
    outer loop
      vertex 3.5 2.95672 29.7961
      vertex -3.5 3.51118 30.8334
      vertex 3.5 3.51118 30.8334
    endloop
  endfacet
  facet normal 0 0.881917 -0.471404
    outer loop
      vertex -3.5 3.51118 30.8334
      vertex 3.5 2.95672 29.7961
      vertex -3.5 2.95672 29.7961
    endloop
  endfacet
  facet normal 0 0.290258 -0.956949
    outer loop
      vertex -3.5 6.2039 33.0433
      vertex 3.5 7.32946 33.3847
      vertex 3.5 6.2039 33.0433
    endloop
  endfacet
  facet normal 0 0.290258 -0.956949
    outer loop
      vertex 3.5 7.32946 33.3847
      vertex -3.5 6.2039 33.0433
      vertex -3.5 7.32946 33.3847
    endloop
  endfacet
  facet normal 0 0.634405 -0.773001
    outer loop
      vertex -3.5 4.25736 31.7426
      vertex 3.5 5.16658 32.4888
      vertex 3.5 4.25736 31.7426
    endloop
  endfacet
  facet normal 0 0.634405 -0.773001
    outer loop
      vertex 3.5 5.16658 32.4888
      vertex -3.5 4.25736 31.7426
      vertex -3.5 5.16658 32.4888
    endloop
  endfacet
  facet normal 0 0.471424 -0.881907
    outer loop
      vertex -3.5 5.16658 32.4888
      vertex 3.5 6.2039 33.0433
      vertex 3.5 5.16658 32.4888
    endloop
  endfacet
  facet normal 0 0.471424 -0.881907
    outer loop
      vertex 3.5 6.2039 33.0433
      vertex -3.5 5.16658 32.4888
      vertex -3.5 6.2039 33.0433
    endloop
  endfacet
  facet normal 0 -0.634413 -0.772994
    outer loop
      vertex -3.5 11.8334 32.4888
      vertex 3.5 12.7426 31.7426
      vertex 3.5 11.8334 32.4888
    endloop
  endfacet
  facet normal -0 -0.634413 -0.772994
    outer loop
      vertex 3.5 12.7426 31.7426
      vertex -3.5 11.8334 32.4888
      vertex -3.5 12.7426 31.7426
    endloop
  endfacet
  facet normal 0 0.773003 -0.634403
    outer loop
      vertex 3.5 3.51118 30.8334
      vertex -3.5 4.25736 31.7426
      vertex 3.5 4.25736 31.7426
    endloop
  endfacet
  facet normal 0 0.773003 -0.634403
    outer loop
      vertex -3.5 4.25736 31.7426
      vertex 3.5 3.51118 30.8334
      vertex -3.5 3.51118 30.8334
    endloop
  endfacet
  facet normal 0 0.995184 -0.098022
    outer loop
      vertex 3.5 2.5 27.5
      vertex -3.5 2.61529 28.6705
      vertex 3.5 2.61529 28.6705
    endloop
  endfacet
  facet normal 0 0.995184 -0.098022
    outer loop
      vertex -3.5 2.61529 28.6705
      vertex 3.5 2.5 27.5
      vertex -3.5 2.5 27.5
    endloop
  endfacet
  facet normal 0 0.956944 -0.290271
    outer loop
      vertex 3.5 2.61529 28.6705
      vertex -3.5 2.95672 29.7961
      vertex 3.5 2.95672 29.7961
    endloop
  endfacet
  facet normal 0 0.956944 -0.290271
    outer loop
      vertex -3.5 2.95672 29.7961
      vertex 3.5 2.61529 28.6705
      vertex -3.5 2.61529 28.6705
    endloop
  endfacet
  facet normal 0 -0.995183 0.0980305
    outer loop
      vertex -3.5 14.3847 26.3295
      vertex 3.5 14.5 27.5
      vertex -3.5 14.5 27.5
    endloop
  endfacet
  facet normal 0 -0.995183 0.0980305
    outer loop
      vertex 3.5 14.5 27.5
      vertex -3.5 14.3847 26.3295
      vertex 3.5 14.3847 26.3295
    endloop
  endfacet
  facet normal 0 -0.956951 0.290248
    outer loop
      vertex -3.5 14.0433 25.2039
      vertex 3.5 14.3847 26.3295
      vertex -3.5 14.3847 26.3295
    endloop
  endfacet
  facet normal 0 -0.956951 0.290248
    outer loop
      vertex 3.5 14.3847 26.3295
      vertex -3.5 14.0433 25.2039
      vertex 3.5 14.0433 25.2039
    endloop
  endfacet
  facet normal 0 0.0980271 -0.995184
    outer loop
      vertex -3.5 7.32946 33.3847
      vertex 3.5 8.5 33.5
      vertex 3.5 7.32946 33.3847
    endloop
  endfacet
  facet normal 0 0.0980271 -0.995184
    outer loop
      vertex 3.5 8.5 33.5
      vertex -3.5 7.32946 33.3847
      vertex -3.5 8.5 33.5
    endloop
  endfacet
  facet normal 0 -0.881903 0.471431
    outer loop
      vertex -3.5 13.4888 24.1666
      vertex 3.5 14.0433 25.2039
      vertex -3.5 14.0433 25.2039
    endloop
  endfacet
  facet normal 0 -0.881903 0.471431
    outer loop
      vertex 3.5 14.0433 25.2039
      vertex -3.5 13.4888 24.1666
      vertex 3.5 13.4888 24.1666
    endloop
  endfacet
  facet normal 0 -0.956951 -0.290248
    outer loop
      vertex -3.5 14.3847 28.6705
      vertex 3.5 14.0433 29.7961
      vertex -3.5 14.0433 29.7961
    endloop
  endfacet
  facet normal 0 -0.956951 -0.290248
    outer loop
      vertex 3.5 14.0433 29.7961
      vertex -3.5 14.3847 28.6705
      vertex 3.5 14.3847 28.6705
    endloop
  endfacet
  facet normal 0 -0.995183 -0.0980305
    outer loop
      vertex -3.5 14.5 27.5
      vertex 3.5 14.3847 28.6705
      vertex -3.5 14.3847 28.6705
    endloop
  endfacet
  facet normal 0 -0.995183 -0.0980305
    outer loop
      vertex 3.5 14.3847 28.6705
      vertex -3.5 14.5 27.5
      vertex 3.5 14.5 27.5
    endloop
  endfacet
  facet normal 0 -0.772994 -0.634413
    outer loop
      vertex -3.5 13.4888 30.8334
      vertex 3.5 12.7426 31.7426
      vertex -3.5 12.7426 31.7426
    endloop
  endfacet
  facet normal 0 -0.772994 -0.634413
    outer loop
      vertex 3.5 12.7426 31.7426
      vertex -3.5 13.4888 30.8334
      vertex 3.5 13.4888 30.8334
    endloop
  endfacet
  facet normal 0 -0.471431 -0.881903
    outer loop
      vertex -3.5 10.7961 33.0433
      vertex 3.5 11.8334 32.4888
      vertex 3.5 10.7961 33.0433
    endloop
  endfacet
  facet normal -0 -0.471431 -0.881903
    outer loop
      vertex 3.5 11.8334 32.4888
      vertex -3.5 10.7961 33.0433
      vertex -3.5 11.8334 32.4888
    endloop
  endfacet
  facet normal 0 -0.0980271 -0.995184
    outer loop
      vertex -3.5 8.5 33.5
      vertex 3.5 9.67054 33.3847
      vertex 3.5 8.5 33.5
    endloop
  endfacet
  facet normal -0 -0.0980271 -0.995184
    outer loop
      vertex 3.5 9.67054 33.3847
      vertex -3.5 8.5 33.5
      vertex -3.5 9.67054 33.3847
    endloop
  endfacet
  facet normal 0 -0.290258 -0.956949
    outer loop
      vertex -3.5 9.67054 33.3847
      vertex 3.5 10.7961 33.0433
      vertex 3.5 9.67054 33.3847
    endloop
  endfacet
  facet normal -0 -0.290258 -0.956949
    outer loop
      vertex 3.5 10.7961 33.0433
      vertex -3.5 9.67054 33.3847
      vertex -3.5 10.7961 33.0433
    endloop
  endfacet
  facet normal 0 -0.722473 -0.691399
    outer loop
      vertex -3.5 12.6353 23.1527
      vertex 3.5 12.6264 23.162
      vertex -3.5 12.6264 23.162
    endloop
  endfacet
  facet normal 0 -0.722473 -0.691399
    outer loop
      vertex 3.5 12.6264 23.162
      vertex -3.5 12.6353 23.1527
      vertex 3.5 12.6353 23.1527
    endloop
  endfacet
  facet normal 0 -0.689234 0.724538
    outer loop
      vertex -3.5 12.6353 23.1527
      vertex 3.5 2.36612 13.3839
      vertex 3.5 12.6353 23.1527
    endloop
  endfacet
  facet normal 0 -0.689234 0.724538
    outer loop
      vertex 3.5 2.36612 13.3839
      vertex -3.5 12.6353 23.1527
      vertex -3.5 2.36612 13.3839
    endloop
  endfacet
  facet normal 0 0.689197 -0.724574
    outer loop
      vertex -3.5 4.77911 12.2298
      vertex 3.5 14.3583 21.3413
      vertex 3.5 4.77911 12.2298
    endloop
  endfacet
  facet normal 0 0.689197 -0.724574
    outer loop
      vertex 3.5 14.3583 21.3413
      vertex -3.5 4.77911 12.2298
      vertex -3.5 14.3583 21.3413
    endloop
  endfacet
  facet normal 0 -0.956946 0.290267
    outer loop
      vertex -3.5 2.02402 12.7439
      vertex 3.5 2.09515 12.9784
      vertex -3.5 2.09515 12.9784
    endloop
  endfacet
  facet normal 0 -0.956946 0.290267
    outer loop
      vertex 3.5 2.09515 12.9784
      vertex -3.5 2.02402 12.7439
      vertex 3.5 2.02402 12.7439
    endloop
  endfacet
  facet normal 0 -0.956946 -0.290267
    outer loop
      vertex -3.5 2.09515 12.0216
      vertex 3.5 2.02402 12.2561
      vertex -3.5 2.02402 12.2561
    endloop
  endfacet
  facet normal 0 -0.956946 -0.290267
    outer loop
      vertex 3.5 2.02402 12.2561
      vertex -3.5 2.09515 12.0216
      vertex 3.5 2.09515 12.0216
    endloop
  endfacet
  facet normal 0 -0.995186 0.0980088
    outer loop
      vertex -3.5 2 12.5
      vertex 3.5 2.02402 12.7439
      vertex -3.5 2.02402 12.7439
    endloop
  endfacet
  facet normal 0 -0.995186 0.0980088
    outer loop
      vertex 3.5 2.02402 12.7439
      vertex -3.5 2 12.5
      vertex 3.5 2 12.5
    endloop
  endfacet
  facet normal 0 0.756802 -0.653644
    outer loop
      vertex 3.5 14.3583 21.3413
      vertex -3.5 14.428 21.422
      vertex 3.5 14.428 21.422
    endloop
  endfacet
  facet normal 0 0.756802 -0.653644
    outer loop
      vertex -3.5 14.428 21.422
      vertex 3.5 14.3583 21.3413
      vertex -3.5 14.3583 21.3413
    endloop
  endfacet
  facet normal 0 -0.772964 0.63445
    outer loop
      vertex -3.5 2.21066 13.1945
      vertex 3.5 2.36612 13.3839
      vertex -3.5 2.36612 13.3839
    endloop
  endfacet
  facet normal 0 -0.772964 0.63445
    outer loop
      vertex 3.5 2.36612 13.3839
      vertex -3.5 2.21066 13.1945
      vertex 3.5 2.21066 13.1945
    endloop
  endfacet
  facet normal 0 -0.881918 0.471404
    outer loop
      vertex -3.5 2.09515 12.9784
      vertex 3.5 2.21066 13.1945
      vertex -3.5 2.21066 13.1945
    endloop
  endfacet
  facet normal 0 -0.881918 0.471404
    outer loop
      vertex 3.5 2.21066 13.1945
      vertex -3.5 2.09515 12.9784
      vertex 3.5 2.09515 12.9784
    endloop
  endfacet
  facet normal 0 -0.995186 -0.0980088
    outer loop
      vertex -3.5 2.02402 12.2561
      vertex 3.5 2 12.5
      vertex -3.5 2 12.5
    endloop
  endfacet
  facet normal 0 -0.995186 -0.0980088
    outer loop
      vertex 3.5 2 12.5
      vertex -3.5 2.02402 12.2561
      vertex 3.5 2.02402 12.2561
    endloop
  endfacet
  facet normal 0 0.956946 0.290267
    outer loop
      vertex 3.5 5.72598 10.2439
      vertex -3.5 5.65485 10.4784
      vertex 3.5 5.65485 10.4784
    endloop
  endfacet
  facet normal 0 0.956946 0.290267
    outer loop
      vertex -3.5 5.65485 10.4784
      vertex 3.5 5.72598 10.2439
      vertex -3.5 5.72598 10.2439
    endloop
  endfacet
  facet normal 0 -0.894424 -0.447221
    outer loop
      vertex -3.5 3.34515 9.52165
      vertex 3.5 2.09515 12.0216
      vertex -3.5 2.09515 12.0216
    endloop
  endfacet
  facet normal 0 -0.894424 -0.447221
    outer loop
      vertex 3.5 2.09515 12.0216
      vertex -3.5 3.34515 9.52165
      vertex 3.5 3.34515 9.52165
    endloop
  endfacet
  facet normal 0 0.63441 -0.772996
    outer loop
      vertex -3.5 5.19446 8.96066
      vertex 3.5 5.38388 9.11612
      vertex 3.5 5.19446 8.96066
    endloop
  endfacet
  facet normal 0 0.63441 -0.772996
    outer loop
      vertex 3.5 5.38388 9.11612
      vertex -3.5 5.19446 8.96066
      vertex -3.5 5.38388 9.11612
    endloop
  endfacet
  facet normal 0 -0.0980248 -0.995184
    outer loop
      vertex -3.5 4.25614 8.77402
      vertex 3.5 4.5 8.75
      vertex 3.5 4.25614 8.77402
    endloop
  endfacet
  facet normal -0 -0.0980248 -0.995184
    outer loop
      vertex 3.5 4.5 8.75
      vertex -3.5 4.25614 8.77402
      vertex -3.5 4.5 8.75
    endloop
  endfacet
  facet normal 0 0.881927 -0.471387
    outer loop
      vertex 3.5 5.53934 9.30554
      vertex -3.5 5.65485 9.52165
      vertex 3.5 5.65485 9.52165
    endloop
  endfacet
  facet normal 0 0.881927 -0.471387
    outer loop
      vertex -3.5 5.65485 9.52165
      vertex 3.5 5.53934 9.30554
      vertex -3.5 5.53934 9.30554
    endloop
  endfacet
  facet normal 0 -0.881927 -0.471387
    outer loop
      vertex -3.5 3.46066 9.30554
      vertex 3.5 3.34515 9.52165
      vertex -3.5 3.34515 9.52165
    endloop
  endfacet
  facet normal 0 -0.881927 -0.471387
    outer loop
      vertex 3.5 3.34515 9.52165
      vertex -3.5 3.46066 9.30554
      vertex 3.5 3.46066 9.30554
    endloop
  endfacet
  facet normal 0 -0.63441 -0.772996
    outer loop
      vertex -3.5 3.61612 9.11612
      vertex 3.5 3.80554 8.96066
      vertex 3.5 3.61612 9.11612
    endloop
  endfacet
  facet normal -0 -0.63441 -0.772996
    outer loop
      vertex 3.5 3.80554 8.96066
      vertex -3.5 3.61612 9.11612
      vertex -3.5 3.80554 8.96066
    endloop
  endfacet
  facet normal 0 -0.772996 -0.63441
    outer loop
      vertex -3.5 3.61612 9.11612
      vertex 3.5 3.46066 9.30554
      vertex -3.5 3.46066 9.30554
    endloop
  endfacet
  facet normal 0 -0.772996 -0.63441
    outer loop
      vertex 3.5 3.46066 9.30554
      vertex -3.5 3.61612 9.11612
      vertex 3.5 3.61612 9.11612
    endloop
  endfacet
  facet normal 0 -0.471387 -0.881927
    outer loop
      vertex -3.5 3.80554 8.96066
      vertex 3.5 4.02165 8.84515
      vertex 3.5 3.80554 8.96066
    endloop
  endfacet
  facet normal -0 -0.471387 -0.881927
    outer loop
      vertex 3.5 4.02165 8.84515
      vertex -3.5 3.80554 8.96066
      vertex -3.5 4.02165 8.84515
    endloop
  endfacet
  facet normal 0 0.290278 -0.956942
    outer loop
      vertex -3.5 4.74386 8.77402
      vertex 3.5 4.97835 8.84515
      vertex 3.5 4.74386 8.77402
    endloop
  endfacet
  facet normal 0 0.290278 -0.956942
    outer loop
      vertex 3.5 4.97835 8.84515
      vertex -3.5 4.74386 8.77402
      vertex -3.5 4.97835 8.84515
    endloop
  endfacet
  facet normal 0 0.894419 0.44723
    outer loop
      vertex 3.5 5.65485 10.4784
      vertex -3.5 4.77911 12.2298
      vertex 3.5 4.77911 12.2298
    endloop
  endfacet
  facet normal 0 0.894419 0.44723
    outer loop
      vertex -3.5 4.77911 12.2298
      vertex 3.5 5.65485 10.4784
      vertex -3.5 5.65485 10.4784
    endloop
  endfacet
  facet normal 0 0.772996 -0.63441
    outer loop
      vertex 3.5 5.38388 9.11612
      vertex -3.5 5.53934 9.30554
      vertex 3.5 5.53934 9.30554
    endloop
  endfacet
  facet normal 0 0.772996 -0.63441
    outer loop
      vertex -3.5 5.53934 9.30554
      vertex 3.5 5.38388 9.11612
      vertex -3.5 5.38388 9.11612
    endloop
  endfacet
  facet normal 0 -0.290278 -0.956942
    outer loop
      vertex -3.5 4.02165 8.84515
      vertex 3.5 4.25614 8.77402
      vertex 3.5 4.02165 8.84515
    endloop
  endfacet
  facet normal -0 -0.290278 -0.956942
    outer loop
      vertex 3.5 4.25614 8.77402
      vertex -3.5 4.02165 8.84515
      vertex -3.5 4.25614 8.77402
    endloop
  endfacet
  facet normal 0 0.995184 -0.0980248
    outer loop
      vertex 3.5 5.72598 9.75614
      vertex -3.5 5.75 10
      vertex 3.5 5.75 10
    endloop
  endfacet
  facet normal 0 0.995184 -0.0980248
    outer loop
      vertex -3.5 5.75 10
      vertex 3.5 5.72598 9.75614
      vertex -3.5 5.72598 9.75614
    endloop
  endfacet
  facet normal 0 0.471387 -0.881927
    outer loop
      vertex -3.5 4.97835 8.84515
      vertex 3.5 5.19446 8.96066
      vertex 3.5 4.97835 8.84515
    endloop
  endfacet
  facet normal 0 0.471387 -0.881927
    outer loop
      vertex 3.5 5.19446 8.96066
      vertex -3.5 4.97835 8.84515
      vertex -3.5 5.19446 8.96066
    endloop
  endfacet
  facet normal 0 0.956942 -0.290278
    outer loop
      vertex 3.5 5.65485 9.52165
      vertex -3.5 5.72598 9.75614
      vertex 3.5 5.72598 9.75614
    endloop
  endfacet
  facet normal 0 0.956942 -0.290278
    outer loop
      vertex -3.5 5.72598 9.75614
      vertex 3.5 5.65485 9.52165
      vertex -3.5 5.65485 9.52165
    endloop
  endfacet
  facet normal 0 0.0980248 -0.995184
    outer loop
      vertex -3.5 4.5 8.75
      vertex 3.5 4.74386 8.77402
      vertex 3.5 4.5 8.75
    endloop
  endfacet
  facet normal 0 0.0980248 -0.995184
    outer loop
      vertex 3.5 4.74386 8.77402
      vertex -3.5 4.5 8.75
      vertex -3.5 4.74386 8.77402
    endloop
  endfacet
  facet normal 0 0.995186 0.0980088
    outer loop
      vertex 3.5 5.75 10
      vertex -3.5 5.72598 10.2439
      vertex 3.5 5.72598 10.2439
    endloop
  endfacet
  facet normal 0 0.995186 0.0980088
    outer loop
      vertex -3.5 5.72598 10.2439
      vertex 3.5 5.75 10
      vertex -3.5 5.75 10
    endloop
  endfacet
  facet normal -0 0 1
    outer loop
      vertex -3.5 0.0049245 27.55
      vertex 3.5 0 27.55
      vertex 3.5 0.0049245 27.55
    endloop
  endfacet
  facet normal 0 0 1
    outer loop
      vertex 3.5 0 27.55
      vertex -3.5 0.0049245 27.55
      vertex -3.5 0 27.55
    endloop
  endfacet
  facet normal 0 0 -1
    outer loop
      vertex 3.5 -7 2.5
      vertex 1.8 -3.5 2.5
      vertex 3.5 2.5 2.5
    endloop
  endfacet
  facet normal 0 0 -1
    outer loop
      vertex 3.5 -7 2.5
      vertex 1.66298 -4.18883 2.5
      vertex 1.8 -3.5 2.5
    endloop
  endfacet
  facet normal 0 0 -1
    outer loop
      vertex 3.5 -7 2.5
      vertex 1.27279 -4.77279 2.5
      vertex 1.66298 -4.18883 2.5
    endloop
  endfacet
  facet normal 0 0 -1
    outer loop
      vertex 3.5 -7 2.5
      vertex 0.688829 -5.16298 2.5
      vertex 1.27279 -4.77279 2.5
    endloop
  endfacet
  facet normal 0 0 -1
    outer loop
      vertex 3.5 -7 2.5
      vertex 0 -5.3 2.5
      vertex 0.688829 -5.16298 2.5
    endloop
  endfacet
  facet normal 0 0 -1
    outer loop
      vertex -3.5 -7 2.5
      vertex 0 -5.3 2.5
      vertex 3.5 -7 2.5
    endloop
  endfacet
  facet normal -0 0 -1
    outer loop
      vertex -1.66298 -4.18883 2.5
      vertex -3.5 -7 2.5
      vertex -1.8 -3.5 2.5
    endloop
  endfacet
  facet normal -0 0 -1
    outer loop
      vertex -1.27279 -4.77279 2.5
      vertex -3.5 -7 2.5
      vertex -1.66298 -4.18883 2.5
    endloop
  endfacet
  facet normal -0 0 -1
    outer loop
      vertex -0.688829 -5.16298 2.5
      vertex -3.5 -7 2.5
      vertex -1.27279 -4.77279 2.5
    endloop
  endfacet
  facet normal -0 0 -1
    outer loop
      vertex 0 -5.3 2.5
      vertex -3.5 -7 2.5
      vertex -0.688829 -5.16298 2.5
    endloop
  endfacet
  facet normal 0 0 -1
    outer loop
      vertex 1.66298 -2.81117 2.5
      vertex 3.5 2.5 2.5
      vertex 1.8 -3.5 2.5
    endloop
  endfacet
  facet normal 0 0 -1
    outer loop
      vertex 1.27279 -2.22721 2.5
      vertex 3.5 2.5 2.5
      vertex 1.66298 -2.81117 2.5
    endloop
  endfacet
  facet normal 0 0 -1
    outer loop
      vertex 0.688829 -1.83702 2.5
      vertex 3.5 2.5 2.5
      vertex 1.27279 -2.22721 2.5
    endloop
  endfacet
  facet normal 0 0 -1
    outer loop
      vertex 0 -1.7 2.5
      vertex 3.5 2.5 2.5
      vertex 0.688829 -1.83702 2.5
    endloop
  endfacet
  facet normal 0 0 -1
    outer loop
      vertex -3.5 2.5 2.5
      vertex 0 -1.7 2.5
      vertex -0.688829 -1.83702 2.5
    endloop
  endfacet
  facet normal 0 0 -1
    outer loop
      vertex -3.5 2.5 2.5
      vertex -0.688829 -1.83702 2.5
      vertex -1.27279 -2.22721 2.5
    endloop
  endfacet
  facet normal 0 0 -1
    outer loop
      vertex -3.5 2.5 2.5
      vertex -1.8 -3.5 2.5
      vertex -3.5 -7 2.5
    endloop
  endfacet
  facet normal 0 0 -1
    outer loop
      vertex 0 -1.7 2.5
      vertex -3.5 2.5 2.5
      vertex 3.5 2.5 2.5
    endloop
  endfacet
  facet normal 0 0 -1
    outer loop
      vertex -1.66298 -2.81117 2.5
      vertex -3.5 2.5 2.5
      vertex -1.27279 -2.22721 2.5
    endloop
  endfacet
  facet normal 0 0 -1
    outer loop
      vertex -1.8 -3.5 2.5
      vertex -3.5 2.5 2.5
      vertex -1.66298 -2.81117 2.5
    endloop
  endfacet
  facet normal 0 1 -0
    outer loop
      vertex 3.5 2.5 2.5
      vertex -3.5 2.5 9.53042
      vertex 3.5 2.5 9.53042
    endloop
  endfacet
  facet normal 0 1 0
    outer loop
      vertex -3.5 2.5 9.53042
      vertex 3.5 2.5 2.5
      vertex -3.5 2.5 2.5
    endloop
  endfacet
  facet normal 0 1 -0
    outer loop
      vertex 3.5 2.5 15.4696
      vertex -3.5 2.5 27.5
      vertex 3.5 2.5 27.5
    endloop
  endfacet
  facet normal 0 1 0
    outer loop
      vertex -3.5 2.5 27.5
      vertex 3.5 2.5 15.4696
      vertex -3.5 2.5 15.4696
    endloop
  endfacet
  facet normal 0 -1 0
    outer loop
      vertex -3.5 0 5
      vertex 3.5 0 27.55
      vertex -3.5 0 27.55
    endloop
  endfacet
  facet normal 0 -1 -0
    outer loop
      vertex 3.5 0 27.55
      vertex -3.5 0 5
      vertex 3.5 0 5
    endloop
  endfacet
  facet normal 0 0.956934 -0.290304
    outer loop
      vertex 3.5 1.59607 13.4755
      vertex -3.5 1.8806 14.4134
      vertex 3.5 1.8806 14.4134
    endloop
  endfacet
  facet normal 0 0.956934 -0.290304
    outer loop
      vertex -3.5 1.8806 14.4134
      vertex 3.5 1.59607 13.4755
      vertex -3.5 1.59607 13.4755
    endloop
  endfacet
  facet normal 0 0.881925 0.47139
    outer loop
      vertex 3.5 2.34265 9.72215
      vertex -3.5 1.8806 10.5866
      vertex 3.5 1.8806 10.5866
    endloop
  endfacet
  facet normal 0 0.881925 0.47139
    outer loop
      vertex -3.5 1.8806 10.5866
      vertex 3.5 2.34265 9.72215
      vertex -3.5 2.34265 9.72215
    endloop
  endfacet
  facet normal 0 0.773008 0.634396
    outer loop
      vertex 3.5 2.5 9.53042
      vertex -3.5 2.34265 9.72215
      vertex 3.5 2.34265 9.72215
    endloop
  endfacet
  facet normal 0 0.773008 0.634396
    outer loop
      vertex -3.5 2.34265 9.72215
      vertex 3.5 2.5 9.53042
      vertex -3.5 2.5 9.53042
    endloop
  endfacet
  facet normal 0 0.772959 -0.634456
    outer loop
      vertex 3.5 2.34265 15.2779
      vertex -3.5 2.5 15.4696
      vertex 3.5 2.5 15.4696
    endloop
  endfacet
  facet normal 0 0.772959 -0.634456
    outer loop
      vertex -3.5 2.5 15.4696
      vertex 3.5 2.34265 15.2779
      vertex -3.5 2.34265 15.2779
    endloop
  endfacet
  facet normal 0 0.956934 0.290304
    outer loop
      vertex 3.5 1.8806 10.5866
      vertex -3.5 1.59607 11.5245
      vertex 3.5 1.59607 11.5245
    endloop
  endfacet
  facet normal 0 0.956934 0.290304
    outer loop
      vertex -3.5 1.59607 11.5245
      vertex 3.5 1.8806 10.5866
      vertex -3.5 1.8806 10.5866
    endloop
  endfacet
  facet normal 0 0.995186 0.0980087
    outer loop
      vertex 3.5 1.59607 11.5245
      vertex -3.5 1.5 12.5
      vertex 3.5 1.5 12.5
    endloop
  endfacet
  facet normal 0 0.995186 0.0980087
    outer loop
      vertex -3.5 1.5 12.5
      vertex 3.5 1.59607 11.5245
      vertex -3.5 1.59607 11.5245
    endloop
  endfacet
  facet normal 0 0.995186 -0.0980087
    outer loop
      vertex 3.5 1.5 12.5
      vertex -3.5 1.59607 13.4755
      vertex 3.5 1.59607 13.4755
    endloop
  endfacet
  facet normal 0 0.995186 -0.0980087
    outer loop
      vertex -3.5 1.59607 13.4755
      vertex 3.5 1.5 12.5
      vertex -3.5 1.5 12.5
    endloop
  endfacet
  facet normal 0 0.881936 -0.471369
    outer loop
      vertex 3.5 1.8806 14.4134
      vertex -3.5 2.34265 15.2779
      vertex 3.5 2.34265 15.2779
    endloop
  endfacet
  facet normal 0 0.881936 -0.471369
    outer loop
      vertex -3.5 2.34265 15.2779
      vertex 3.5 1.8806 14.4134
      vertex -3.5 1.8806 14.4134
    endloop
  endfacet
  facet normal 0 0 1
    outer loop
      vertex 3.5 0 5
      vertex 1.8 -3.5 5
      vertex 3.5 -7 5
    endloop
  endfacet
  facet normal 0 0 1
    outer loop
      vertex 3.5 0 5
      vertex 1.66298 -2.81117 5
      vertex 1.8 -3.5 5
    endloop
  endfacet
  facet normal 0 0 1
    outer loop
      vertex 3.5 0 5
      vertex 1.27279 -2.22721 5
      vertex 1.66298 -2.81117 5
    endloop
  endfacet
  facet normal 0 0 1
    outer loop
      vertex 3.5 0 5
      vertex 0.688829 -1.83702 5
      vertex 1.27279 -2.22721 5
    endloop
  endfacet
  facet normal 0 0 1
    outer loop
      vertex 3.5 0 5
      vertex 0 -1.7 5
      vertex 0.688829 -1.83702 5
    endloop
  endfacet
  facet normal -0 0 1
    outer loop
      vertex -3.5 0 5
      vertex 0 -1.7 5
      vertex 3.5 0 5
    endloop
  endfacet
  facet normal 0 0 1
    outer loop
      vertex -1.66298 -2.81117 5
      vertex -3.5 0 5
      vertex -1.8 -3.5 5
    endloop
  endfacet
  facet normal 0 0 1
    outer loop
      vertex -1.27279 -2.22721 5
      vertex -3.5 0 5
      vertex -1.66298 -2.81117 5
    endloop
  endfacet
  facet normal 0 0 1
    outer loop
      vertex -0.688829 -1.83702 5
      vertex -3.5 0 5
      vertex -1.27279 -2.22721 5
    endloop
  endfacet
  facet normal 0 0 1
    outer loop
      vertex 0 -1.7 5
      vertex -3.5 0 5
      vertex -0.688829 -1.83702 5
    endloop
  endfacet
  facet normal -0 0 1
    outer loop
      vertex 1.66298 -4.18883 5
      vertex 3.5 -7 5
      vertex 1.8 -3.5 5
    endloop
  endfacet
  facet normal -0 0 1
    outer loop
      vertex 1.27279 -4.77279 5
      vertex 3.5 -7 5
      vertex 1.66298 -4.18883 5
    endloop
  endfacet
  facet normal -0 0 1
    outer loop
      vertex 0.688829 -5.16298 5
      vertex 3.5 -7 5
      vertex 1.27279 -4.77279 5
    endloop
  endfacet
  facet normal -0 0 1
    outer loop
      vertex 0 -5.3 5
      vertex 3.5 -7 5
      vertex 0.688829 -5.16298 5
    endloop
  endfacet
  facet normal 0 0 1
    outer loop
      vertex -3.5 -7 5
      vertex 0 -5.3 5
      vertex -0.688829 -5.16298 5
    endloop
  endfacet
  facet normal 0 0 1
    outer loop
      vertex -3.5 -7 5
      vertex -1.8 -3.5 5
      vertex -3.5 0 5
    endloop
  endfacet
  facet normal 0 0 1
    outer loop
      vertex 0 -5.3 5
      vertex -3.5 -7 5
      vertex 3.5 -7 5
    endloop
  endfacet
  facet normal 0 0 1
    outer loop
      vertex -1.27279 -4.77279 5
      vertex -3.5 -7 5
      vertex -0.688829 -5.16298 5
    endloop
  endfacet
  facet normal 0 0 1
    outer loop
      vertex -1.66298 -4.18883 5
      vertex -3.5 -7 5
      vertex -1.27279 -4.77279 5
    endloop
  endfacet
  facet normal 0 0 1
    outer loop
      vertex -1.8 -3.5 5
      vertex -3.5 -7 5
      vertex -1.66298 -4.18883 5
    endloop
  endfacet
  facet normal 0 -1 0
    outer loop
      vertex -3.5 -7 2.5
      vertex 3.5 -7 5
      vertex -3.5 -7 5
    endloop
  endfacet
  facet normal 0 -1 -0
    outer loop
      vertex 3.5 -7 5
      vertex -3.5 -7 2.5
      vertex 3.5 -7 2.5
    endloop
  endfacet
  facet normal 0.195095 0.980784 -0
    outer loop
      vertex 0 -5.3 2.5
      vertex -0.688829 -5.16298 5
      vertex 0 -5.3 5
    endloop
  endfacet
  facet normal 0.195095 0.980784 0
    outer loop
      vertex -0.688829 -5.16298 5
      vertex 0 -5.3 2.5
      vertex -0.688829 -5.16298 2.5
    endloop
  endfacet
  facet normal -0.831469 -0.555571 0
    outer loop
      vertex 1.66298 -2.81117 2.5
      vertex 1.27279 -2.22721 5
      vertex 1.27279 -2.22721 2.5
    endloop
  endfacet
  facet normal -0.831469 -0.555571 0
    outer loop
      vertex 1.27279 -2.22721 5
      vertex 1.66298 -2.81117 2.5
      vertex 1.66298 -2.81117 5
    endloop
  endfacet
  facet normal -0.980784 -0.195095 0
    outer loop
      vertex 1.8 -3.5 2.5
      vertex 1.66298 -2.81117 5
      vertex 1.66298 -2.81117 2.5
    endloop
  endfacet
  facet normal -0.980784 -0.195095 0
    outer loop
      vertex 1.66298 -2.81117 5
      vertex 1.8 -3.5 2.5
      vertex 1.8 -3.5 5
    endloop
  endfacet
  facet normal -0.55557 -0.83147 0
    outer loop
      vertex 0.688829 -1.83702 2.5
      vertex 1.27279 -2.22721 5
      vertex 0.688829 -1.83702 5
    endloop
  endfacet
  facet normal -0.55557 -0.83147 -0
    outer loop
      vertex 1.27279 -2.22721 5
      vertex 0.688829 -1.83702 2.5
      vertex 1.27279 -2.22721 2.5
    endloop
  endfacet
  facet normal -0.831469 0.555571 0
    outer loop
      vertex 1.27279 -4.77279 2.5
      vertex 1.66298 -4.18883 5
      vertex 1.66298 -4.18883 2.5
    endloop
  endfacet
  facet normal -0.831469 0.555571 0
    outer loop
      vertex 1.66298 -4.18883 5
      vertex 1.27279 -4.77279 2.5
      vertex 1.27279 -4.77279 5
    endloop
  endfacet
  facet normal -0.55557 0.83147 0
    outer loop
      vertex 1.27279 -4.77279 2.5
      vertex 0.688829 -5.16298 5
      vertex 1.27279 -4.77279 5
    endloop
  endfacet
  facet normal -0.55557 0.83147 0
    outer loop
      vertex 0.688829 -5.16298 5
      vertex 1.27279 -4.77279 2.5
      vertex 0.688829 -5.16298 2.5
    endloop
  endfacet
  facet normal 0.980784 -0.195095 0
    outer loop
      vertex -1.8 -3.5 5
      vertex -1.66298 -2.81117 2.5
      vertex -1.66298 -2.81117 5
    endloop
  endfacet
  facet normal 0.980784 -0.195095 0
    outer loop
      vertex -1.66298 -2.81117 2.5
      vertex -1.8 -3.5 5
      vertex -1.8 -3.5 2.5
    endloop
  endfacet
  facet normal 0.55557 -0.83147 0
    outer loop
      vertex -1.27279 -2.22721 2.5
      vertex -0.688829 -1.83702 5
      vertex -1.27279 -2.22721 5
    endloop
  endfacet
  facet normal 0.55557 -0.83147 0
    outer loop
      vertex -0.688829 -1.83702 5
      vertex -1.27279 -2.22721 2.5
      vertex -0.688829 -1.83702 2.5
    endloop
  endfacet
  facet normal -0.980784 0.195095 0
    outer loop
      vertex 1.66298 -4.18883 2.5
      vertex 1.8 -3.5 5
      vertex 1.8 -3.5 2.5
    endloop
  endfacet
  facet normal -0.980784 0.195095 0
    outer loop
      vertex 1.8 -3.5 5
      vertex 1.66298 -4.18883 2.5
      vertex 1.66298 -4.18883 5
    endloop
  endfacet
  facet normal -0.195095 0.980784 0
    outer loop
      vertex 0.688829 -5.16298 2.5
      vertex 0 -5.3 5
      vertex 0.688829 -5.16298 5
    endloop
  endfacet
  facet normal -0.195095 0.980784 0
    outer loop
      vertex 0 -5.3 5
      vertex 0.688829 -5.16298 2.5
      vertex 0 -5.3 2.5
    endloop
  endfacet
  facet normal 0.55557 0.83147 -0
    outer loop
      vertex -0.688829 -5.16298 2.5
      vertex -1.27279 -4.77279 5
      vertex -0.688829 -5.16298 5
    endloop
  endfacet
  facet normal 0.55557 0.83147 0
    outer loop
      vertex -1.27279 -4.77279 5
      vertex -0.688829 -5.16298 2.5
      vertex -1.27279 -4.77279 2.5
    endloop
  endfacet
  facet normal 0.195095 -0.980784 0
    outer loop
      vertex -0.688829 -1.83702 2.5
      vertex 0 -1.7 5
      vertex -0.688829 -1.83702 5
    endloop
  endfacet
  facet normal 0.195095 -0.980784 0
    outer loop
      vertex 0 -1.7 5
      vertex -0.688829 -1.83702 2.5
      vertex 0 -1.7 2.5
    endloop
  endfacet
  facet normal 0.831469 -0.555571 0
    outer loop
      vertex -1.66298 -2.81117 5
      vertex -1.27279 -2.22721 2.5
      vertex -1.27279 -2.22721 5
    endloop
  endfacet
  facet normal 0.831469 -0.555571 0
    outer loop
      vertex -1.27279 -2.22721 2.5
      vertex -1.66298 -2.81117 5
      vertex -1.66298 -2.81117 2.5
    endloop
  endfacet
  facet normal -0.195095 -0.980784 0
    outer loop
      vertex 0 -1.7 2.5
      vertex 0.688829 -1.83702 5
      vertex 0 -1.7 5
    endloop
  endfacet
  facet normal -0.195095 -0.980784 -0
    outer loop
      vertex 0.688829 -1.83702 5
      vertex 0 -1.7 2.5
      vertex 0.688829 -1.83702 2.5
    endloop
  endfacet
  facet normal 0.831469 0.555571 0
    outer loop
      vertex -1.27279 -4.77279 5
      vertex -1.66298 -4.18883 2.5
      vertex -1.66298 -4.18883 5
    endloop
  endfacet
  facet normal 0.831469 0.555571 0
    outer loop
      vertex -1.66298 -4.18883 2.5
      vertex -1.27279 -4.77279 5
      vertex -1.27279 -4.77279 2.5
    endloop
  endfacet
  facet normal 0.980784 0.195095 0
    outer loop
      vertex -1.66298 -4.18883 5
      vertex -1.8 -3.5 2.5
      vertex -1.8 -3.5 5
    endloop
  endfacet
  facet normal 0.980784 0.195095 0
    outer loop
      vertex -1.8 -3.5 2.5
      vertex -1.66298 -4.18883 5
      vertex -1.66298 -4.18883 2.5
    endloop
  endfacet
endsolid OpenSCAD_Model
